ffmpeg started on 2016-12-01 at 00:20:46
Report written to "Output/x264/results/ffmpeg/old_town_cross_2160p50medium1000k.log"
Command line:
Tools/ffmpeg/ffmpeg -benchmark -y -i Input/y4m/old_town_cross_2160p50.y4m -c:v libx264 -preset medium -b:v 1000k -an Output/x264/encoded/old_town_cross_2160p50medium1000k.mkv
ffmpeg version N-82227-gdb23fde Copyright (c) 2000-2016 the FFmpeg developers
  built with gcc 5.4.0 (Ubuntu 5.4.0-6ubuntu1~16.04.2) 20160609
  configuration: --prefix=/home/jaroslav/ffmpeg_build --pkg-config-flags=--static --extra-cflags=-I/home/jaroslav/ffmpeg_build/include --extra-ldflags=-L/home/jaroslav/ffmpeg_build/lib --bindir=/home/jaroslav/bin --enable-gpl --enable-libass --enable-libfdk-aac --enable-libfreetype --enable-libmp3lame --enable-libopus --enable-libtheora --enable-libvorbis --enable-libvpx --enable-libx264 --enable-libx265 --enable-nvenc --enable-libmfx --enable-libxvid --enable-libgsm --enable-libopencore-amrnb --enable-version3 --enable-nonfree
  libavutil      55. 35.100 / 55. 35.100
  libavcodec     57. 66.101 / 57. 66.101
  libavformat    57. 57.100 / 57. 57.100
  libavdevice    57.  2.100 / 57.  2.100
  libavfilter     6. 66.100 /  6. 66.100
  libswscale      4.  3.100 /  4.  3.100
  libswresample   2.  4.100 /  2.  4.100
  libpostproc    54.  2.100 / 54.  2.100
Input #0, yuv4mpegpipe, from 'Input/y4m/old_town_cross_2160p50.y4m':
  Duration: 00:00:10.00, start: 0.000000, bitrate: 4976642 kb/s
    Stream #0:0: Video: rawvideo (I420 / 0x30323449), yuv420p(progressive), 3840x2160, SAR 1:1 DAR 16:9, 50 fps, 50 tbr, 50 tbn, 50 tbc
[libx264 @ 0x3268120] using SAR=1/1
[libx264 @ 0x3268120] using cpu capabilities: MMX2 SSE2Fast SSSE3 SSE4.2 AVX FMA3 AVX2 LZCNT BMI2
[libx264 @ 0x3268120] profile High, level 5.2
[libx264 @ 0x3268120] 264 - core 148 - H.264/MPEG-4 AVC codec - Copyleft 2003-2016 - http://www.videolan.org/x264.html - options: cabac=1 ref=3 deblock=1:0:0 analyse=0x3:0x113 me=hex subme=7 psy=1 psy_rd=1.00:0.00 mixed_ref=1 me_range=16 chroma_me=1 trellis=1 8x8dct=1 cqm=0 deadzone=21,11 fast_pskip=1 chroma_qp_offset=-2 threads=6 lookahead_threads=1 sliced_threads=0 nr=0 decimate=1 interlaced=0 bluray_compat=0 constrained_intra=0 bframes=3 b_pyramid=2 b_adapt=1 b_bias=0 direct=1 weightb=1 open_gop=0 weightp=2 keyint=250 keyint_min=25 scenecut=40 intra_refresh=0 rc_lookahead=40 rc=abr mbtree=1 bitrate=1000 ratetol=1.0 qcomp=0.60 qpmin=0 qpmax=69 qpstep=4 ip_ratio=1.40 aq=1:1.00
Output #0, matroska, to 'Output/x264/encoded/old_town_cross_2160p50medium1000k.mkv':
  Metadata:
    encoder         : Lavf57.57.100
    Stream #0:0: Video: h264 (libx264) (H264 / 0x34363248), yuv420p, 3840x2160 [SAR 1:1 DAR 16:9], q=-1--1, 1000 kb/s, 50 fps, 1k tbn, 50 tbc
    Metadata:
      encoder         : Lavc57.66.101 libx264
    Side data:
      cpb: bitrate max/min/avg: 0/0/1000000 buffer size: 0 vbv_delay: -1
Stream mapping:
  Stream #0:0 -> #0:0 (rawvideo (native) -> h264 (libx264))
Press [q] to stop, [?] for help
frame=   47 fps= 18 q=0.0 size=       0kB time=00:00:00.00 bitrate=N/A speed=   0x    frame=   56 fps= 18 q=58.0 size=       1kB time=00:00:00.06 bitrate=  96.3kbits/s speed=0.0199x    frame=   66 fps= 18 q=59.0 size=       1kB time=00:00:00.26 bitrate=  22.5kbits/s speed=0.0731x    frame=   75 fps= 18 q=58.0 size=       1kB time=00:00:00.44 bitrate=  13.3kbits/s speed=0.108x    frame=   84 fps= 18 q=58.0 size=       1kB time=00:00:00.62 bitrate=   9.5kbits/s speed=0.13x    frame=   94 fps= 18 q=57.0 size=       1kB time=00:00:00.82 bitrate=   7.2kbits/s speed=0.155x    frame=  104 fps= 17 q=57.0 size=       1kB time=00:00:01.02 bitrate=   5.8kbits/s speed=0.17x    frame=  113 fps= 17 q=57.0 size=       1kB time=00:00:01.20 bitrate=   4.9kbits/s speed=0.184x    frame=  123 fps= 18 q=56.0 size=       1kB time=00:00:01.40 bitrate=   4.2kbits/s speed= 0.2x    frame=  132 fps= 17 q=56.0 size=       1kB time=00:00:01.58 bitrate=   3.7kbits/s speed=0.205x    frame=  142 fps= 17 q=56.0 size=       1kB time=00:00:01.78 bitrate=   3.3kbits/s speed=0.216x    frame=  152 fps= 17 q=56.0 size=       1kB time=00:00:01.98 bitrate=   3.0kbits/s speed=0.221x    frame=  162 fps= 17 q=56.0 size=       1kB time=00:00:02.18 bitrate=   2.7kbits/s speed=0.231x    frame=  172 fps= 17 q=56.0 size=       1kB time=00:00:02.38 bitrate=   2.5kbits/s speed=0.234x    frame=  182 fps= 17 q=56.0 size=       1kB time=00:00:02.58 bitrate=   2.3kbits/s speed=0.242x    frame=  192 fps= 17 q=55.0 size=       1kB time=00:00:02.78 bitrate=   2.1kbits/s speed=0.244x    frame=  202 fps= 17 q=55.0 size=       1kB time=00:00:02.98 bitrate=   2.0kbits/s speed=0.251x    frame=  212 fps= 17 q=55.0 size=       1kB time=00:00:03.18 bitrate=   1.8kbits/s speed=0.252x    frame=  222 fps= 17 q=55.0 size=       1kB time=00:00:03.38 bitrate=   1.7kbits/s speed=0.258x    frame=  231 fps= 17 q=55.0 size=       1kB time=00:00:03.56 bitrate=   1.6kbits/s speed=0.262x    frame=  240 fps= 17 q=55.0 size=       1kB time=00:00:03.74 bitrate=   1.6kbits/s speed=0.261x    frame=  250 fps= 17 q=55.0 size=       1kB time=00:00:03.94 bitrate=   1.5kbits/s speed=0.266x    frame=  260 fps= 17 q=55.0 size=       1kB time=00:00:04.14 bitrate=   1.4kbits/s speed=0.266x    frame=  262 fps= 16 q=55.0 size=       1kB time=00:00:04.18 bitrate=   1.4kbits/s speed=0.251x    frame=  263 fps= 15 q=55.0 size=       1kB time=00:00:04.20 bitrate=   1.4kbits/s speed=0.243x    frame=  265 fps= 15 q=55.0 size=       1kB time=00:00:04.24 bitrate=   1.4kbits/s speed=0.235x    frame=  270 fps= 14 q=55.0 size=       1kB time=00:00:04.34 bitrate=   1.4kbits/s speed=0.233x    frame=  275 fps= 14 q=56.0 size=       1kB time=00:00:04.44 bitrate=   1.3kbits/s speed=0.231x    frame=  280 fps= 14 q=56.0 size=       1kB time=00:00:04.54 bitrate=   1.3kbits/s speed=0.229x    frame=  285 fps= 14 q=56.0 size=       1kB time=00:00:04.64 bitrate=   1.3kbits/s speed=0.227x    frame=  290 fps= 14 q=56.0 size=       1kB time=00:00:04.74 bitrate=   1.2kbits/s speed=0.225x    frame=  295 fps= 14 q=53.0 size=       1kB time=00:00:04.84 bitrate=   1.2kbits/s speed=0.222x    frame=  305 fps= 14 q=57.0 size=     613kB time=00:00:05.04 bitrate= 996.2kbits/s speed=0.226x    frame=  315 fps= 14 q=57.0 size=     613kB time=00:00:05.24 bitrate= 958.1kbits/s speed=0.23x    frame=  325 fps= 14 q=57.0 size=     613kB time=00:00:05.44 bitrate= 922.9kbits/s speed=0.231x    frame=  333 fps= 14 q=57.0 size=     613kB time=00:00:05.60 bitrate= 896.6kbits/s speed=0.233x    frame=  343 fps= 14 q=57.0 size=     613kB time=00:00:05.80 bitrate= 865.6kbits/s speed=0.236x    frame=  353 fps= 14 q=57.0 size=     613kB time=00:00:06.00 bitrate= 836.8kbits/s speed=0.237x    frame=  363 fps= 14 q=57.0 size=     613kB time=00:00:06.20 bitrate= 809.8kbits/s speed=0.241x    frame=  372 fps= 14 q=57.0 size=     613kB time=00:00:06.38 bitrate= 787.0kbits/s speed=0.243x    frame=  381 fps= 14 q=57.0 size=     613kB time=00:00:06.56 bitrate= 765.4kbits/s speed=0.243x    frame=  391 fps= 14 q=57.0 size=     613kB time=00:00:06.76 bitrate= 742.7kbits/s speed=0.246x    frame=  401 fps= 14 q=57.0 size=     613kB time=00:00:06.96 bitrate= 721.4kbits/s speed=0.247x    frame=  410 fps= 14 q=57.0 size=     613kB time=00:00:07.14 bitrate= 703.2kbits/s speed=0.248x    frame=  420 fps= 14 q=57.0 size=     613kB time=00:00:07.34 bitrate= 684.0kbits/s speed=0.251x    frame=  429 fps= 14 q=57.0 size=     613kB time=00:00:07.52 bitrate= 667.7kbits/s speed=0.251x    frame=  439 fps= 14 q=57.0 size=     613kB time=00:00:07.72 bitrate= 650.4kbits/s speed=0.253x    frame=  449 fps= 14 q=57.0 size=     613kB time=00:00:07.92 bitrate= 634.0kbits/s speed=0.254x    frame=  459 fps= 14 q=57.0 size=     613kB time=00:00:08.12 bitrate= 618.3kbits/s speed=0.256x    frame=  468 fps= 15 q=57.0 size=     613kB time=00:00:08.30 bitrate= 604.9kbits/s speed=0.258x    frame=  477 fps= 14 q=57.0 size=     613kB time=00:00:08.48 bitrate= 592.1kbits/s speed=0.258x    frame=  487 fps= 15 q=57.0 size=     613kB time=00:00:08.68 bitrate= 578.5kbits/s speed=0.26x    frame=  496 fps= 15 q=57.0 size=     613kB time=00:00:08.86 bitrate= 566.7kbits/s speed=0.261x    frame=  500 fps= 13 q=-1.0 Lsize=    1348kB time=00:00:09.94 bitrate=1111.0kbits/s speed=0.261x    
video:1344kB audio:0kB subtitle:0kB other streams:0kB global headers:0kB muxing overhead: 0.317107%
bench: utime=103.300s
bench: maxrss=1917360kB
[libx264 @ 0x3268120] frame I:3     Avg QP:50.48  size: 22956
[libx264 @ 0x3268120] frame P:183   Avg QP:51.00  size:  4586
[libx264 @ 0x3268120] frame B:314   Avg QP:51.00  size:  1489
[libx264 @ 0x3268120] consecutive B-frames: 16.0%  0.8%  0.0% 83.2%
[libx264 @ 0x3268120] mb I  I16..4: 19.1% 80.9%  0.0%
[libx264 @ 0x3268120] mb P  I16..4:  1.7%  0.7%  0.0%  P16..4:  4.5%  0.1%  2.9%  0.0%  0.0%    skip:90.1%
[libx264 @ 0x3268120] mb B  I16..4:  0.0%  0.0%  0.0%  B16..8:  7.1%  0.0%  0.0%  direct: 0.0%  skip:92.9%  L0: 9.0% L1:91.0% BI: 0.0%
[libx264 @ 0x3268120] final ratefactor: 49.44
[libx264 @ 0x3268120] 8x8 transform intra:50.0% inter:99.9%
[libx264 @ 0x3268120] coded y,uvDC,uvAC intra: 2.2% 11.9% 0.2% inter: 0.1% 0.2% 0.0%
[libx264 @ 0x3268120] i16 v,h,dc,p: 51% 38%  5%  5%
[libx264 @ 0x3268120] i8 v,h,dc,ddl,ddr,vr,hd,vl,hu: 23%  7% 67%  0%  0%  0%  1%  0%  0%
[libx264 @ 0x3268120] i4 v,h,dc,ddl,ddr,vr,hd,vl,hu: 45% 34%  8%  5%  4%  1%  4%  0%  0%
[libx264 @ 0x3268120] i8c dc,h,v,p: 99%  0%  0%  0%
[libx264 @ 0x3268120] Weighted P-Frames: Y:0.5% UV:0.0%
[libx264 @ 0x3268120] ref P L0: 88.7%  0.1%  7.7%  3.5%  0.0%
[libx264 @ 0x3268120] ref B L0: 95.7%  0.7%  3.6%
[libx264 @ 0x3268120] ref B L1: 99.8%  0.2%
[libx264 @ 0x3268120] kb/s:1100.40
